<?xml version="1.0" standalone="no"?>
<!DOCTYPE svg PUBLIC "-//W3C//DTD SVG 20010904//EN"
 "http://www.w3.org/TR/2001/REC-SVG-20010904/DTD/svg10.dtd">
<svg version="1.0" xmlns="http://www.w3.org/2000/svg"
 width="2048.000000pt" height="2048.000000pt" viewBox="0 0 2048.000000 2048.000000"
 preserveAspectRatio="xMidYMid meet">
<metadata>
Created by potrace 1.16, written by Peter Selinger 2001-2019
</metadata>
<g transform="translate(0.000000,2048.000000) scale(0.100000,-0.100000)"
fill="#fff" stroke="none">
<path d="M9660 20459 c-554 -28 -1290 -137 -1845 -275 -154 -39 -446 -118
-510 -139 -22 -7 -114 -36 -205 -65 -661 -209 -1422 -552 -2052 -926 -1175
-697 -2196 -1615 -3013 -2709 -658 -882 -1163 -1848 -1510 -2890 -286 -858
-458 -1769 -505 -2665 -13 -264 -13 -835 0 -1099 73 -1416 461 -2851 1112
-4111 1016 -1966 2619 -3544 4593 -4520 1239 -612 2591 -968 3957 -1040 253
-13 863 -13 1116 0 609 32 1297 135 1887 281 162 41 459 122 505 139 14 5 99
32 190 60 770 242 1627 647 2362 1117 1540 985 2806 2384 3633 4018 615 1214
973 2507 1076 3880 17 230 23 978 10 1243 -62 1252 -361 2500 -872 3639 -100
224 -251 533 -260 533 -13 0 -75 -142 -113 -260 -60 -191 -115 -440 -186 -855
-27 -159 -63 -364 -80 -455 -17 -91 -35 -192 -41 -225 -39 -226 -147 -631
-216 -810 -61 -158 -74 -188 -129 -293 -102 -197 -205 -335 -354 -474 -69 -65
-111 -95 -187 -134 l-98 -49 -105 0 c-101 0 -108 2 -183 37 -60 29 -96 56
-155 115 -95 96 -107 110 -158 198 -103 174 -108 191 -184 615 -54 300 -95
406 -173 447 -39 19 -86 3 -128 -45 -63 -71 -111 -200 -219 -592 -60 -217
-121 -401 -160 -485 -116 -245 -254 -310 -425 -201 -63 41 -101 85 -115 134
-15 54 -13 71 19 200 32 129 62 256 116 497 130 571 199 850 287 1160 182 644
399 1151 650 1520 99 145 149 199 213 231 51 25 63 26 141 21 70 -4 97 -11
152 -38 102 -52 107 -66 88 -266 -8 -87 -18 -198 -21 -248 -4 -49 -13 -157
-20 -240 -8 -82 -16 -220 -20 -305 -3 -85 -8 -180 -11 -212 -9 -104 -5 -701 6
-858 18 -257 62 -481 120 -620 70 -164 165 -248 271 -238 75 8 124 60 175 190
23 58 74 247 89 328 16 89 83 391 120 545 8 33 28 121 45 195 17 74 42 185 56
245 168 731 329 1217 548 1653 36 73 66 136 66 142 0 6 -52 93 -116 193 -1021
1608 -2444 2889 -4139 3727 -1238 612 -2594 968 -3957 1040 -224 11 -893 11
-1138 -1z m6181 -5373 c57 -19 144 -83 175 -128 l29 -41 -2 -156 c-4 -318 -47
-866 -89 -1136 -55 -354 -99 -506 -246 -855 -53 -126 -224 -476 -284 -581 -75
-131 -260 -425 -327 -520 -252 -353 -501 -588 -726 -685 -231 -99 -430 -62
-610 114 -221 216 -329 507 -356 957 -20 319 62 842 202 1300 47 153 139 412
175 494 11 25 26 61 33 80 35 98 177 386 266 541 74 129 179 290 211 324 10
11 18 23 18 26 0 27 122 39 193 19 97 -26 176 -153 184 -293 8 -148 -39 -286
-236 -684 -56 -115 -117 -255 -140 -325 -42 -128 -155 -516 -190 -653 -76
-300 -137 -640 -127 -718 7 -62 42 -154 105 -276 58 -113 92 -140 180 -140 47
0 60 5 115 44 68 49 196 176 278 276 29 36 55 67 58 70 3 3 17 21 30 40 13 19
27 37 30 40 6 6 91 123 136 190 33 48 134 218 134 225 0 2 18 41 39 87 141
297 257 693 305 1038 38 274 39 287 26 504 -19 319 -4 450 70 601 101 207 196
269 341 221z m-11467 -11 c272 -48 465 -140 621 -299 125 -127 199 -266 245
-457 18 -72 24 -134 28 -265 13 -478 -135 -910 -462 -1355 -123 -166 -158
-213 -190 -249 -17 -20 -47 -55 -66 -80 -19 -24 -69 -84 -110 -134 -290 -351
-315 -391 -315 -501 0 -46 6 -82 18 -105 9 -19 88 -107 175 -195 175 -178 211
-233 255 -386 50 -171 59 -452 20 -624 -30 -133 -159 -394 -277 -558 -214
-299 -461 -471 -806 -559 -95 -24 -143 -30 -275 -35 -189 -7 -298 5 -428 48
-218 71 -371 206 -481 426 -45 88 -61 133 -97 270 -43 165 -60 311 -66 568 -7
289 9 529 72 1100 60 542 184 1133 321 1525 150 428 352 819 587 1133 88 117
133 158 198 178 19 6 122 14 229 18 219 8 230 12 297 83 69 76 93 128 113 246
28 164 31 170 62 204 l29 31 109 -7 c60 -3 147 -13 194 -21z m8033 -460 c193
-45 360 -185 536 -447 140 -210 243 -458 293 -705 35 -174 37 -398 5 -553 -63
-303 -160 -579 -316 -895 -180 -364 -341 -601 -585 -855 -158 -166 -317 -264
-525 -325 -145 -43 -291 -69 -390 -69 -71 -1 -90 3 -170 38 -291 125 -321 132
-427 97 -99 -33 -146 -68 -328 -246 -181 -176 -218 -201 -375 -255 -189 -65
-246 -75 -440 -75 l-180 1 -108 37 c-145 49 -264 127 -383 249 -50 51 -109
121 -132 154 -36 54 -175 327 -337 661 -28 57 -54 103 -58 103 -15 0 -35 -66
-46 -155 -6 -49 -11 -214 -11 -365 0 -374 -18 -517 -80 -640 -54 -105 -151
-170 -260 -173 -50 -2 -61 2 -125 45 -84 56 -129 97 -150 138 -9 17 -25 107
-37 207 -31 260 -31 741 0 1038 42 393 130 841 226 1145 104 330 160 481 272
740 56 127 178 367 253 495 81 140 86 146 118 163 50 27 101 11 267 -85 129
-74 165 -87 218 -80 64 9 136 62 295 217 132 129 158 150 235 187 330 161 515
169 716 31 110 -76 154 -150 173 -293 13 -98 8 -325 -11 -460 -40 -294 -194
-681 -385 -970 -62 -93 -190 -266 -231 -311 -85 -93 -177 -186 -244 -244 -41
-36 -81 -71 -89 -78 -23 -22 -153 -107 -213 -140 -64 -35 -174 -76 -230 -86
l-38 -7 0 -77 c0 -89 33 -221 81 -328 95 -210 252 -363 461 -450 48 -19 87
-27 165 -31 94 -5 110 -3 185 21 403 133 586 311 687 671 24 86 58 292 66 400
8 107 34 373 45 460 9 74 50 249 94 400 113 396 266 737 454 1015 36 52 68 97
71 100 4 3 28 32 53 65 51 68 198 220 273 284 70 60 219 158 285 188 132 59
260 76 377 48z m-5422 -859 c311 -83 532 -253 642 -493 101 -219 76 -491 -68
-762 -120 -225 -291 -397 -532 -536 -140 -80 -240 -123 -637 -272 -140 -52
-309 -121 -375 -152 -103 -49 -127 -65 -166 -112 -140 -164 -161 -378 -57
-582 16 -33 35 -67 42 -74 83 -99 110 -126 161 -165 86 -65 158 -102 255 -133
72 -23 103 -28 200 -28 100 0 125 3 188 26 58 21 435 208 477 237 6 3 46 20
90 38 215 83 335 60 335 -62 0 -65 -23 -112 -96 -206 -257 -329 -524 -522
-842 -607 -89 -25 -113 -27 -297 -27 -192 -1 -205 1 -325 31 -116 29 -305 101
-369 140 -226 139 -339 278 -415 508 -44 134 -65 268 -77 483 -30 570 68 1144
276 1607 55 122 185 369 217 410 5 6 28 40 52 77 24 37 49 73 55 80 6 7 36 45
67 83 140 173 384 379 539 455 120 58 189 70 390 66 145 -3 185 -7 270 -30z
m8018 -3208 c86 -33 122 -62 132 -108 12 -54 -4 -88 -69 -153 -317 -314 -743
-616 -1028 -726 -36 -14 -68 -29 -70 -34 -2 -4 31 -22 72 -40 106 -46 208
-115 288 -194 79 -79 124 -153 152 -255 30 -110 27 -168 -21 -310 -133 -397
-402 -747 -835 -1087 -148 -116 -348 -255 -472 -326 -9 -6 -66 -40 -127 -76
-98 -59 -170 -100 -315 -181 -45 -25 -226 -123 -370 -200 -168 -90 -240 -150
-282 -237 -34 -68 -30 -166 12 -296 89 -277 229 -457 406 -520 107 -38 314
-30 449 17 213 73 350 147 770 411 527 333 595 370 683 371 56 1 78 -24 89
-102 20 -146 -3 -271 -74 -400 -123 -227 -358 -428 -793 -680 -173 -101 -479
-270 -533 -295 -152 -72 -310 -107 -486 -109 -172 -1 -316 20 -436 64 -240 87
-432 273 -574 558 -120 241 -262 669 -290 873 -24 172 -6 507 35 691 174 765
598 1660 914 1924 235 197 574 353 913 419 75 15 137 31 137 35 0 5 -22 30
-49 56 -102 97 -161 235 -164 382 -1 75 2 91 26 140 34 65 92 120 166 157 132
65 366 27 403 -66 6 -14 16 -79 23 -145 19 -172 45 -200 175 -193 161 10 292
95 470 307 131 155 208 234 270 281 44 33 116 70 155 80 53 14 165 -1 248 -33z
m2327 -84 c92 -27 150 -66 254 -169 160 -159 242 -298 253 -430 7 -88 -20
-152 -102 -240 -377 -402 -646 -834 -860 -1380 -24 -60 -53 -135 -65 -165 -13
-30 -80 -224 -150 -430 -158 -463 -189 -546 -256 -687 -62 -130 -90 -156 -192
-184 -77 -22 -106 -23 -167 -8 -66 17 -91 48 -125 158 -72 235 -100 433 -100
711 0 227 11 361 46 555 96 541 318 1079 647 1575 171 256 536 641 662 696 41
18 91 17 155 -2z m-7450 -1068 c80 -19 148 -54 174 -90 13 -17 33 -58 46 -91
57 -147 95 -195 154 -195 17 0 72 20 125 47 l94 48 131 -1 c363 -4 560 -135
642 -429 22 -79 30 -306 14 -421 -15 -113 -57 -262 -110 -389 -41 -98 -160
-319 -190 -353 -8 -9 -31 -37 -50 -62 -73 -95 -254 -261 -412 -378 -73 -54
-82 -70 -76 -147 6 -68 36 -135 129 -290 75 -124 126 -232 145 -307 9 -38 18
-127 21 -228 5 -151 3 -176 -21 -293 -14 -70 -30 -135 -36 -145 -5 -9 -30 -62
-55 -117 -50 -109 -147 -260 -222 -344 -222 -252 -456 -397 -732 -451 -172
-34 -362 -20 -531 38 -30 11 -107 34 -170 51 -130 36 -187 69 -212 123 -10 21
-30 95 -45 165 -26 121 -27 142 -27 393 0 217 4 294 22 427 37 276 118 648
226 1038 115 416 116 419 177 700 16 77 47 223 69 325 137 658 273 1026 483
1307 57 77 124 96 237 69z m-2080 -524 c114 -24 183 -58 253 -122 102 -93 184
-217 278 -418 130 -276 239 -733 239 -997 0 -157 -64 -485 -173 -895 -46 -171
-151 -466 -257 -720 -61 -147 -207 -427 -295 -565 -49 -77 -91 -142 -94 -145
-4 -3 -33 -41 -65 -85 -131 -178 -384 -395 -541 -464 -151 -67 -245 -85 -417
-79 -109 4 -148 10 -218 33 -128 41 -177 64 -265 121 -304 199 -449 531 -449
1024 0 433 112 926 339 1490 183 454 481 994 719 1302 12 14 32 41 46 59 25
34 118 144 175 208 59 66 225 207 272 231 85 43 129 50 253 45 63 -3 153 -13
200 -23z m-1817 -102 c186 -27 309 -140 311 -285 1 -82 -42 -169 -131 -265
-128 -138 -297 -229 -658 -355 -501 -175 -566 -210 -875 -459 -134 -108 -374
-343 -385 -376 -3 -11 -10 -20 -15 -20 -5 0 -25 -32 -44 -71 -59 -118 -47
-179 47 -241 120 -80 210 -113 507 -189 377 -96 484 -142 592 -252 108 -111
148 -242 148 -497 0 -295 -75 -561 -245 -865 -21 -38 -42 -72 -45 -75 -4 -3
-13 -16 -20 -30 -61 -117 -289 -363 -444 -479 -80 -59 -247 -161 -265 -161 -3
0 -17 -6 -32 -13 -45 -24 -173 -65 -260 -84 -120 -25 -380 -25 -464 1 -89 28
-152 62 -200 111 -54 53 -70 84 -86 163 -29 139 47 330 188 475 77 78 119 82
308 27 218 -62 306 -65 415 -14 168 80 356 271 456 464 49 96 65 151 71 251 5
90 4 100 -22 158 -50 110 -155 186 -342 245 -44 13 -219 50 -389 81 -170 31
-347 68 -394 81 -115 34 -224 89 -261 132 -56 64 -62 91 -56 247 20 461 241
902 661 1320 216 214 523 444 801 598 330 182 746 340 992 376 32 5 60 9 63
10 3 0 36 -4 73 -9z m10069 -2565 c173 -36 261 -115 347 -313 62 -141 76 -293
36 -372 -50 -98 -193 -231 -305 -284 -57 -26 -76 -30 -155 -30 -83 -1 -96 2
-165 35 -41 20 -101 57 -132 82 -69 57 -183 195 -210 257 -18 39 -19 51 -10
102 25 135 123 301 252 427 110 108 183 129 342 96z"/>
<path d="M3844 14288 c-21 -24 -39 -64 -58 -134 -40 -139 -69 -198 -183 -369
-224 -337 -363 -584 -447 -795 -42 -106 -85 -294 -92 -398 l-7 -97 35 -19 c28
-15 48 -18 99 -14 76 6 99 17 359 166 483 276 751 510 915 797 162 284 149
513 -39 701 -117 117 -266 180 -456 191 l-96 6 -30 -35z"/>
<path d="M2869 11440 c-34 -18 -36 -22 -57 -122 -50 -241 -64 -343 -69 -538
-4 -155 -2 -216 11 -292 40 -235 114 -371 256 -468 121 -83 324 -113 479 -71
78 21 173 68 236 115 97 74 203 205 253 314 23 49 26 71 27 157 0 116 -13 168
-67 280 -89 181 -250 370 -421 494 -146 106 -543 187 -648 131z"/>
<path d="M9715 13804 c-16 -9 -55 -37 -85 -63 -30 -25 -68 -57 -85 -71 -16
-14 -81 -74 -144 -135 -288 -280 -432 -511 -448 -720 -6 -80 10 -153 52 -227
39 -69 59 -83 120 -82 72 0 108 26 286 203 287 287 411 481 540 846 30 86 37
152 19 185 -32 60 -190 100 -255 64z"/>
<path d="M12112 13710 c-63 -10 -180 -64 -248 -114 -277 -209 -509 -607 -623
-1068 -144 -585 -33 -1098 252 -1158 155 -32 361 80 592 321 272 285 465 595
541 871 87 314 98 379 98 578 1 176 -6 214 -61 323 -51 103 -157 186 -283 225
-78 24 -195 34 -268 22z"/>
<path d="M6650 13160 c-227 -39 -440 -244 -642 -616 -97 -180 -114 -238 -86
-298 32 -72 317 -74 518 -4 226 79 405 213 611 458 68 82 91 155 77 247 -13
86 -49 140 -112 169 -102 46 -249 64 -366 44z"/>
<path d="M13430 8901 c-358 -83 -622 -185 -823 -318 -99 -65 -252 -221 -303
-308 -77 -133 -114 -259 -114 -392 0 -62 3 -76 24 -100 24 -27 27 -28 123 -27
86 1 109 5 193 36 109 41 306 137 430 211 361 214 727 499 825 642 34 49 38
62 38 115 0 52 -4 65 -30 98 -16 20 -43 44 -59 52 -52 26 -166 22 -304 -9z"/>
<path d="M10120 8601 c-137 -45 -273 -195 -374 -413 -61 -131 -80 -212 -80
-338 0 -93 3 -111 25 -155 16 -31 42 -62 68 -80 39 -27 50 -30 119 -30 131 1
275 61 442 187 131 99 259 237 305 327 97 193 -3 383 -250 476 -73 28 -209 42
-255 26z"/>
<path d="M9600 6711 c-135 -44 -207 -170 -256 -446 -25 -141 -25 -482 0 -613
20 -104 42 -140 107 -172 60 -31 130 -27 198 12 245 138 408 300 472 467 17
44 22 78 22 161 0 131 -13 190 -70 309 -35 72 -59 108 -112 160 -89 90 -158
123 -260 127 -42 2 -87 0 -101 -5z"/>
<path d="M7618 8117 c-149 -56 -259 -174 -464 -502 -175 -278 -204 -326 -204
-330 0 -2 -20 -38 -45 -79 -25 -42 -45 -78 -45 -80 0 -2 -23 -52 -51 -112
-137 -287 -205 -578 -229 -965 -15 -251 16 -573 65 -670 40 -78 133 -149 195
-149 33 0 185 54 260 93 243 125 485 382 649 688 201 378 332 866 367 1370 12
183 -25 402 -88 522 -88 164 -277 263 -410 214z"/>
</g>
</svg>
