<?xml version="1.0" standalone="no"?>
<!DOCTYPE svg PUBLIC "-//W3C//DTD SVG 20010904//EN"
 "http://www.w3.org/TR/2001/REC-SVG-20010904/DTD/svg10.dtd">
<svg version="1.0" xmlns="http://www.w3.org/2000/svg"
 width="512.000000pt" height="512.000000pt" viewBox="0 0 512.000000 512.000000"
 preserveAspectRatio="xMidYMid meet">
<metadata>
Created by potrace 1.16, written by Peter Selinger 2001-2019
</metadata>
<g transform="translate(0.000000,512.000000) scale(0.100000,-0.100000)"
fill="#161534" stroke="none">
<path d="M811 5104 c-84 -22 -149 -63 -228 -140 -82 -80 -133 -173 -152 -278
-7 -38 -11 -242 -11 -562 l0 -502 -52 -17 c-167 -54 -303 -196 -353 -367 -13
-46 -16 -94 -13 -255 3 -224 11 -254 89 -332 65 -65 118 -85 232 -89 l97 -4 0
-821 c0 -887 1 -897 53 -1006 71 -145 188 -241 360 -295 14 -5 17 -18 17 -90
0 -154 65 -264 190 -320 l59 -27 298 3 c288 3 300 4 345 26 60 30 120 90 150
150 18 37 24 68 26 145 l4 97 638 0 638 0 4 -97 c2 -77 8 -108 26 -145 30 -60
90 -120 150 -150 45 -22 57 -23 345 -26 l298 -3 59 27 c125 56 190 166 190
320 0 72 3 85 18 90 171 54 288 150 359 295 52 109 53 119 53 1006 l0 821 98
4 c113 4 166 24 231 89 78 78 86 108 89 332 3 161 0 209 -13 255 -50 171 -186
313 -352 367 l-53 17 0 502 c0 320 -4 524 -11 562 -19 105 -70 198 -152 278
-80 79 -145 118 -232 141 -87 22 -3410 22 -3494 -1z m3045 -442 c64 -29 137
-102 165 -167 66 -148 -6 -332 -159 -407 l-47 -23 -1255 0 -1255 0 -47 23
c-196 97 -244 347 -95 500 48 50 100 80 160 92 23 4 591 7 1262 7 l1220 -2 51
-23z m121 -831 c122 -18 220 -95 262 -204 21 -57 21 -69 21 -642 0 -574 0
-585 -22 -642 -29 -77 -104 -152 -181 -181 l-58 -22 -1439 0 -1439 0 -58 22
c-77 29 -152 104 -181 181 -22 57 -22 68 -22 642 0 573 0 585 21 642 40 105
141 187 253 203 74 11 2768 11 2843 1z m-2480 -2153 c166 -62 250 -265 174
-421 -73 -151 -259 -223 -406 -158 -185 82 -246 303 -129 472 77 112 229 157
361 107z m2365 -6 c199 -98 245 -353 90 -505 -64 -63 -129 -90 -217 -91 -217
-1 -370 216 -294 419 29 77 104 154 179 183 73 29 175 26 242 -6z"/>
</g>
</svg>
