<?xml version="1.0" standalone="no"?>
<!DOCTYPE svg PUBLIC "-//W3C//DTD SVG 20010904//EN"
 "http://www.w3.org/TR/2001/REC-SVG-20010904/DTD/svg10.dtd">
<svg version="1.0" xmlns="http://www.w3.org/2000/svg"
 width="0" height="0" viewBox="0 0 0 0"
 preserveAspectRatio="xMidYMid meet">
<metadata>
Created by potrace 1.16, written by Peter Selinger 2001-2019
</metadata>
<g transform="translate(0.000000,200.000000) scale(0.100000,-0.100000)"
fill="#4ca4ca80" stroke="none">
<path d="M1346 1820 c-16 -5 -40 -19 -53 -32 -22 -20 -24 -30 -21 -91 2 -58 0
-71 -17 -83 -27 -20 -42 -17 -61 12 -20 30 -38 18 -28 -20 8 -34 40 -56 81
-56 30 0 33 -3 33 -29 0 -41 17 -81 48 -115 109 -116 302 -40 302 119 0 105
-76 178 -182 173 -44 -2 -54 0 -46 10 6 6 28 12 49 12 36 0 39 2 39 28 0 56
-75 94 -144 72z"/>
<path d="M458 1680 c-111 -59 -119 -235 -14 -300 71 -43 154 -39 213 13 65 57
80 135 42 214 -41 84 -154 118 -241 73z"/>
<path d="M463 1330 c-24 -10 -26 -18 -67 -190 -16 -66 -21 -109 -15 -115 16
-16 10 -54 -11 -65 -23 -12 -40 -68 -40 -132 l0 -48 215 0 215 0 0 41 c0 55
-20 130 -37 136 -24 9 -34 40 -22 66 9 20 5 51 -21 162 -29 122 -35 137 -57
146 -30 11 -130 11 -160 -1z"/>
<path d="M1374 1330 c-17 -7 -28 -34 -57 -151 -20 -79 -32 -146 -28 -149 21
-14 20 -42 -4 -64 -22 -20 -54 -130 -109 -368 l-6 -28 285 0 c157 0 285 3 285
8 0 4 -20 88 -44 187 -35 141 -49 183 -65 194 -22 14 -28 50 -11 67 8 8 0 55
-26 156 -35 144 -36 146 -66 152 -43 8 -129 6 -154 -4z"/>
<path d="M266 1288 c-9 -12 -16 -36 -16 -52 0 -22 -14 -44 -60 -92 -81 -84
-79 -119 10 -149 49 -16 50 -18 50 -56 0 -26 7 -46 21 -60 25 -25 33 -18 46
38 9 34 8 44 -5 57 -13 12 -13 20 -4 41 6 14 18 25 26 25 10 0 22 34 40 113
15 61 29 122 32 135 6 21 4 22 -59 22 -57 0 -68 -3 -81 -22z"/>
<path d="M680 1301 c0 -10 47 -213 56 -243 3 -10 12 -18 19 -18 25 0 38 -38
22 -64 -12 -18 -13 -31 -4 -69 11 -51 26 -58 57 -27 13 13 20 33 20 60 0 39 2
42 45 60 46 20 66 48 58 81 -3 9 -27 38 -54 65 -40 40 -49 54 -49 84 0 20 -7
46 -16 58 -13 19 -24 22 -85 22 -38 0 -69 -4 -69 -9z"/>
<path d="M1182 1298 c-7 -7 -12 -28 -12 -48 0 -30 -9 -44 -56 -90 -31 -30 -60
-66 -65 -79 -14 -35 11 -65 70 -87 50 -18 51 -18 51 -60 0 -39 19 -74 39 -74
4 0 12 21 18 47 9 38 8 51 -4 69 -16 26 -3 64 22 64 8 0 17 12 21 28 3 15 17
71 30 124 13 53 24 101 24 107 0 15 -123 14 -138 -1z"/>
<path d="M1594 1288 c3 -13 18 -74 32 -135 18 -77 31 -113 41 -113 22 0 39
-46 23 -65 -14 -17 -6 -100 11 -111 5 -3 21 1 34 10 19 12 25 26 27 62 3 45 5
48 43 61 82 28 84 64 10 142 -48 51 -55 63 -55 99 0 59 -18 72 -102 72 -68 0
-70 -1 -64 -22z"/>
<path d="M370 485 l0 -266 25 -24 c13 -14 34 -25 45 -25 29 0 76 26 84 45 3 9
6 133 6 276 l0 259 -80 0 -80 0 0 -265z"/>
<path d="M560 487 c0 -288 2 -299 59 -312 33 -7 85 15 95 40 3 9 6 133 6 276
l0 259 -80 0 -80 0 0 -263z"/>
<path d="M1280 386 c0 -85 3 -162 6 -171 10 -25 62 -47 95 -40 53 12 59 33 59
207 l0 158 -80 0 -80 0 0 -154z"/>
<path d="M1470 386 c0 -85 3 -162 6 -171 10 -25 62 -47 95 -40 53 12 59 33 59
207 l0 158 -80 0 -80 0 0 -154z"/>
</g>
</svg>
