<?xml version="1.0" standalone="no"?>
<!DOCTYPE svg PUBLIC "-//W3C//DTD SVG 20010904//EN"
 "http://www.w3.org/TR/2001/REC-SVG-20010904/DTD/svg10.dtd">
<svg version="1.0" xmlns="http://www.w3.org/2000/svg"
 width="980.000000pt" height="622.000000pt" viewBox="0 0 980.000000 622.000000"
 preserveAspectRatio="xMidYMid meet">
<metadata>
Created by potrace 1.16, written by Peter Selinger 2001-2019
</metadata>
<g transform="translate(0.000000,622.000000) scale(0.100000,-0.100000)"
fill="#161534" stroke="none">
<path d="M1553 6138 c-64 -94 -603 -1049 -1215 -2153 -359 -649 -340 -612
-333 -635 7 -23 61 -63 215 -160 181 -114 306 -188 430 -253 l114 -59 29 33
c15 19 83 126 151 239 280 468 1402 2474 1439 2572 5 13 -20 34 -111 96 -236
159 -623 392 -653 392 -9 0 -38 -31 -66 -72z"/>
<path d="M8055 6144 c-66 -37 -203 -119 -305 -182 -270 -168 -334 -218 -323
-251 43 -118 1532 -2764 1589 -2821 13 -13 28 -8 129 43 199 101 593 345 639
396 15 17 15 21 -5 67 -134 303 -1559 2814 -1598 2814 -3 0 -60 -30 -126 -66z"/>
<path d="M5195 5443 c-538 -10 -1083 -90 -1275 -188 -57 -30 -96 -71 -207
-220 -288 -388 -600 -853 -664 -990 -28 -58 -30 -69 -27 -165 3 -100 4 -104
31 -124 25 -18 42 -21 130 -20 285 3 566 149 847 440 58 60 133 151 168 202
l63 92 187 59 c262 84 304 95 345 87 81 -15 693 -343 1157 -619 457 -273 1265
-844 1804 -1275 l219 -176 53 29 c138 75 395 290 546 457 l70 78 -422 747
c-841 1491 -802 1423 -832 1423 -14 0 -80 -12 -145 -27 -99 -23 -141 -27 -263
-27 -158 1 -263 16 -548 80 -246 55 -430 92 -553 109 -145 20 -439 32 -684 28z"/>
<path d="M2265 5063 c-65 -115 -347 -614 -627 -1111 l-509 -903 94 -112 c51
-62 139 -170 196 -240 l102 -128 47 36 c127 97 213 129 342 128 208 -1 391
-122 498 -330 20 -40 40 -73 43 -73 3 0 39 43 80 97 82 108 163 174 242 198
256 78 537 -46 655 -288 49 -100 62 -159 62 -281 l0 -93 73 -5 c133 -9 306
-111 392 -233 82 -115 119 -228 117 -355 l-2 -76 93 -17 c305 -56 523 -317
504 -602 -6 -91 -28 -156 -86 -255 -64 -108 -65 -107 63 -152 322 -114 705
-173 901 -139 126 22 239 91 354 217 54 58 60 74 37 93 -7 6 -226 117 -485
247 -356 178 -475 241 -483 259 -25 55 21 135 78 135 39 0 136 -41 454 -195
331 -160 534 -252 620 -281 41 -14 83 -19 170 -19 110 0 118 1 182 33 42 20
79 47 98 72 39 49 79 147 87 210 11 90 -15 110 -537 413 -448 259 -669 393
-703 425 -15 15 -30 37 -33 49 -8 29 24 73 69 98 l34 18 159 -88 c88 -48 341
-193 564 -320 389 -223 530 -300 595 -325 44 -17 197 -14 262 5 72 21 120 52
171 110 57 64 72 117 72 245 l0 107 -372 224 c-683 410 -1091 665 -1115 697
-17 21 -16 57 2 92 13 25 22 30 51 30 77 0 178 -55 1017 -559 l619 -371 81 0
c103 0 209 16 247 35 50 26 101 85 133 152 25 54 30 77 30 143 1 68 -3 86 -31
143 -54 109 -243 272 -777 672 -858 642 -1445 1015 -2245 1428 l-185 95 -179
-54 c-99 -30 -180 -55 -181 -56 -34 -54 -198 -242 -285 -328 -263 -260 -549
-408 -852 -440 -207 -22 -332 14 -412 119 l-41 54 -3 117 c-7 226 47 341 390
837 79 115 154 224 166 244 l22 37 -43 10 c-24 6 -124 25 -222 42 -311 53
-413 86 -611 200 -67 39 -123 70 -126 70 -3 0 -59 -93 -123 -207z"/>
<path d="M1847 2529 c-27 -4 -59 -15 -72 -23 -64 -42 -290 -348 -321 -434 -41
-115 25 -278 151 -374 50 -38 154 -78 204 -78 91 0 166 61 307 249 128 170
139 195 138 301 0 69 -5 95 -26 140 -70 151 -227 241 -381 219z"/>
<path d="M2835 2436 c-55 -24 -137 -123 -401 -481 -246 -333 -362 -499 -384
-547 -53 -116 9 -294 134 -388 63 -47 93 -60 173 -70 123 -16 176 15 300 171
139 175 571 770 604 833 29 54 31 64 27 137 -4 61 -11 91 -36 142 -41 84 -130
167 -207 196 -64 24 -164 27 -210 7z"/>
<path d="M3414 1746 c-68 -31 -565 -679 -631 -823 -51 -112 -14 -264 91 -368
65 -65 132 -96 218 -103 98 -7 130 2 189 55 52 47 213 257 416 543 166 233
168 238 167 340 0 71 -5 95 -28 147 -35 77 -113 153 -193 190 -69 32 -181 41
-229 19z"/>
<path d="M4029 1067 c-19 -7 -45 -20 -57 -29 -54 -37 -289 -347 -388 -511 -46
-77 -49 -85 -49 -151 0 -134 89 -267 224 -334 112 -56 223 -41 303 40 100 103
305 378 373 501 36 65 37 72 33 141 -6 91 -48 174 -124 246 -94 89 -227 130
-315 97z"/>
</g>
</svg>
