<svg xmlns="http://www.w3.org/2000/svg" xmlns:xlink="http://www.w3.org/1999/xlink" version="1.1" xml:space="preserve" viewBox="300 70 787.34 534.89">
<desc>Created with Fabric.js 3.5.0</desc>
<defs>
</defs>
<rect x="0" y="0" width="100%" height="100%" fill-opacity="0"/>
<g transform="matrix(1 0 0 1 557.1429 267.9107)" id="871973">
<g style="">
		<g transform="matrix(0.6331 0 0 0.6331 -9.5481 176.2586)" id="653626">
<path style="stroke: #161534; stroke-width: 1.5; stroke-dasharray: none; stroke-linecap: butt; stroke-dashoffset: 0; stroke-linejoin: miter; stroke-miterlimit: 4; is-custom-font: none; font-file-url: none; fill: rgb(0,0,0); fill-rule: nonzero; opacity: 1;" vector-effect="non-scaling-stroke" transform=" translate(-240.9115, -240.911)" d="M 393.043 206.632 c -9.813 0 -19.641 1.697 -29.208 5.044 l -1.996 0.698 l -32.147 -58.406 v -25.365 h 38.517 c 7.402 0 13.424 -6.022 13.424 -13.425 s -6.021 -13.425 -13.424 -13.425 h -51.039 c -7.401 0 -13.424 6.022 -13.424 13.425 c 0 1.084 0.148 2.211 0.44 3.349 l 0.078 0.306 v 25.69 H 187.152 l -9.644 -21.476 h 27.897 c 7.009 0 12.71 -5.703 12.71 -12.714 c 0 -7.01 -5.701 -12.713 -12.71 -12.713 h -95.083 c -7.011 0 -12.714 5.703 -12.714 12.713 c 0 7.011 5.703 12.714 12.714 12.714 h 39.322 l 8.49 19.248 l -38.149 70.096 l -2.007 -0.703 c -9.557 -3.351 -19.38 -5.049 -29.198 -5.049 C 39.827 206.639 0 246.468 0 295.423 c 0 48.953 39.827 88.779 88.78 88.779 c 43.436 0 80.206 -31.113 87.434 -73.98 l 0.351 -2.086 h 37.787 l 0.724 0.688 c 5.776 5.48 13.335 8.5 21.284 8.5 c 17.056 0 30.932 -13.876 30.932 -30.932 c 0 -2.946 -0.422 -5.881 -1.255 -8.719 l -0.293 -0.998 l 51.233 -93.079 l 22.596 41.054 l -1.652 1.312 c -21.39 16.999 -33.657 42.316 -33.657 69.462 c 0 48.952 39.826 88.778 88.779 88.778 s 88.78 -39.826 88.78 -88.778 C 481.823 246.464 441.996 206.632 393.043 206.632 z M 129.84 247.173 l 2.349 2.219 c 8.702 8.213 14.881 18.647 17.867 30.177 l 0.811 3.127 h -40.578 L 129.84 247.173 z M 150.056 311.265 c -7.254 27.965 -32.451 47.496 -61.274 47.496 c -34.934 0 -63.354 -28.42 -63.354 -63.354 s 28.421 -63.353 63.354 -63.353 c 5.101 0 10.373 0.686 15.672 2.039 l 3.128 0.8 l -29.93 54.403 c -0.076 0.199 -0.158 0.396 -0.259 0.59 c -0.208 0.43 -0.363 0.803 -0.488 1.164 c -0.175 0.463 -0.294 0.838 -0.382 1.197 c -0.099 0.373 -0.169 0.73 -0.239 1.193 c -0.085 0.504 -0.126 0.924 -0.131 1.293 l -0.005 0.132 c -0.012 0.169 -0.034 0.339 -0.06 0.51 l -0.007 0.056 l 0.005 0.041 c 0.02 0.144 0.036 0.285 0.045 0.426 c 0.028 0.504 0.081 0.981 0.145 1.453 c 0.054 0.344 0.116 0.729 0.214 1.114 c 0.094 0.378 0.208 0.751 0.354 1.153 c 0.149 0.45 0.293 0.811 0.464 1.174 c 0.156 0.348 0.338 0.66 0.549 1.023 l 0.051 0.089 c 0.215 0.377 0.407 0.674 0.611 0.944 c 0.229 0.313 0.479 0.619 0.814 0.994 c 0.263 0.285 0.534 0.586 0.834 0.86 c 0.31 0.28 0.638 0.541 0.97 0.803 c 0.319 0.239 0.675 0.503 1.029 0.706 l 0.147 0.092 c 0.101 0.067 0.201 0.143 0.302 0.219 l 0.092 0.067 c 0.202 0.064 0.4 0.148 0.598 0.255 c 0.341 0.166 0.741 0.334 1.105 0.459 c 0.461 0.17 0.852 0.293 1.258 0.398 c 0.317 0.084 0.647 0.15 1.119 0.227 c 0.499 0.084 0.962 0.131 1.427 0.148 c 0.136 -0.008 0.346 0.021 0.565 0.05 l 62.087 0.009 L 150.056 311.265 z M 212.542 266.657 c -3.338 4.023 -5.611 8.865 -6.574 13.998 l -0.383 2.039 h -29.02 l -0.351 -2.085 c -3.637 -21.568 -15.111 -40.981 -32.312 -54.661 l -1.651 -1.313 l 29.183 -53.023 l 42.102 93.848 L 212.542 266.657 z M 247.331 257.394 l -1.94 -0.592 c -2.246 -0.686 -4.594 -1.11 -6.979 -1.268 l -1.502 -0.098 l -38.342 -85.497 h 96.908 L 247.331 257.394 z M 393.043 358.761 c -34.933 0 -63.353 -28.42 -63.353 -63.354 c 0 -17.544 7.082 -33.887 19.941 -46.018 l 2.35 -2.217 l 29.927 54.367 c 2.227 4.061 6.499 6.58 11.15 6.58 c 2.17 0 4.229 -0.529 6.122 -1.575 c 2.977 -1.635 5.133 -4.331 6.076 -7.593 c 0.944 -3.264 0.563 -6.705 -1.077 -9.688 l -29.925 -54.372 l 3.126 -0.8 c 5.291 -1.354 10.564 -2.04 15.678 -2.04 c 34.934 0 63.354 28.42 63.354 63.353 C 456.396 330.341 427.97 358.761 393.043 358.761 z" stroke-linecap="round"/>
</g>
		<g transform="matrix(1 0 0 1 0 -37.2985)" id="561655">
<g style="" vector-effect="non-scaling-stroke">
		<g transform="matrix(1 0 0 1 -134.94 77.957)" id="Capa_1">
<path style="stroke: #161534; stroke-width: 3; stroke-dasharray: none; stroke-linecap: butt; stroke-dashoffset: 0; stroke-linejoin: miter; stroke-miterlimit: 4; is-custom-font: none; font-file-url: none; fill: rgb(0,0,0); fill-rule: nonzero; opacity: 1;" transform=" translate(-95.252, -308.149)" d="M 95.252 283.11 c -13.807 0 -25.039 11.232 -25.039 25.039 s 11.232 25.039 25.039 25.039 s 25.039 -11.233 25.039 -25.039 S 109.059 283.11 95.252 283.11 z M 95.252 318.188 c -5.536 0 -10.039 -4.504 -10.039 -10.039 s 4.503 -10.039 10.039 -10.039 s 10.039 4.503 10.039 10.039 S 100.788 318.188 95.252 318.188 z" stroke-linecap="round"/>
</g>
		<g transform="matrix(1 0 0 1 126.819 77.957)" id="Capa_1">
<path style="stroke: #161534; stroke-width: 1.5; stroke-dasharray: none; stroke-linecap: butt; stroke-dashoffset: 0; stroke-linejoin: miter; stroke-miterlimit: 4; is-custom-font: none; font-file-url: none; fill: rgb(0,0,0); fill-rule: nonzero; opacity: 1;" transform=" translate(-357.011, -308.149)" d="M 357.012 283.11 c -13.807 0 -25.04 11.232 -25.04 25.039 s 11.233 25.039 25.04 25.039 c 13.806 0 25.038 -11.233 25.038 -25.039 S 370.818 283.11 357.012 283.11 z M 357.012 318.188 c -5.536 0 -10.04 -4.504 -10.04 -10.039 s 4.504 -10.039 10.04 -10.039 c 5.535 0 10.038 4.503 10.038 10.039 S 362.547 318.188 357.012 318.188 z" stroke-linecap="round"/>
</g>
		<g transform="matrix(1 0 0 1 0.0005 -0.0005)" id="Capa_1">
<path style="stroke: #161534; stroke-width: 1.5; stroke-dasharray: none; stroke-linecap: butt; stroke-dashoffset: 0; stroke-linejoin: miter; stroke-miterlimit: 4; is-custom-font: none; font-file-url: none; fill: rgb(0,0,0); fill-rule: nonzero; opacity: 1;" transform=" translate(-230.1925, -230.1915)" d="M 409.227 196.421 l -66.917 -7.645 l -35.714 -58.056 c -10.905 -17.728 -30.61 -28.741 -51.424 -28.741 H 133.676 c -34.925 0 -65.792 23.518 -75.063 57.193 l -0.948 3.445 c -4.607 16.733 -17.845 30.052 -34.549 34.762 C 9.506 201.217 0 213.773 0 227.914 v 83.012 c 0 4.142 3.358 7.5 7.5 7.5 h 38.557 c 4.757 22.798 25.006 39.978 49.195 39.978 s 44.438 -17.18 49.195 -39.978 h 163.37 c 4.757 22.798 25.006 39.978 49.195 39.978 s 44.438 -17.18 49.195 -39.978 h 40.477 c 3.813 0 7.02 -2.861 7.452 -6.65 l 5.874 -51.483 C 463.614 228.69 440.834 200.037 409.227 196.421 z M 15 294.313 h 31.949 c -0.843 2.938 -1.43 5.983 -1.724 9.113 H 15 V 294.313 z M 95.252 343.404 c -19.44 0 -35.255 -15.815 -35.255 -35.255 s 15.815 -35.256 35.255 -35.256 s 35.255 15.816 35.255 35.256 S 114.692 343.404 95.252 343.404 z M 357.012 343.404 c -19.44 0 -35.255 -15.815 -35.255 -35.255 s 15.815 -35.256 35.255 -35.256 s 35.255 15.816 35.255 35.256 S 376.452 343.404 357.012 343.404 z M 357.012 257.893 c -16.987 0 -32.021 8.48 -41.122 21.42 H 182.425 c -4.142 0 -7.5 3.358 -7.5 7.5 s 3.358 7.5 7.5 7.5 h 126.284 c -0.843 2.938 -1.43 5.983 -1.724 9.113 H 145.279 c -2.389 -25.504 -23.909 -45.533 -50.027 -45.533 c -16.987 0 -32.021 8.48 -41.122 21.42 H 15 v -51.399 c 0 -7.455 5.012 -14.075 12.187 -16.098 c 21.728 -6.126 38.947 -23.452 44.94 -45.218 l 0.948 -3.445 c 7.484 -27.186 32.405 -46.174 60.601 -46.174 h 121.496 c 15.643 0 30.452 8.277 38.647 21.6 l 37.626 61.164 c 1.207 1.962 3.249 3.26 5.537 3.522 l 70.541 8.059 c 16.002 1.831 28.943 12.335 34.67 26.276 h -23.413 c -4.142 0 -7.5 3.358 -7.5 7.5 s 3.358 7.5 7.5 7.5 h 26.578 c 0.052 1.975 -0.023 3.975 -0.253 5.993 l -2.364 20.72 h -44.608 C 389.033 266.373 373.998 257.893 357.012 257.893 z M 407.038 303.426 c -0.293 -3.13 -0.881 -6.175 -1.724 -9.113 h 35.716 l -1.04 9.113 H 407.038 z" stroke-linecap="round"/>
</g>
		<g transform="matrix(1 0 0 1 17.493 -7.47)" id="Capa_1">
<path style="stroke: #161534; stroke-width: 1.5; stroke-dasharray: none; stroke-linecap: butt; stroke-dashoffset: 0; stroke-linejoin: miter; stroke-miterlimit: 4; is-custom-font: none; font-file-url: none; fill: rgb(0,0,0); fill-rule: nonzero; opacity: 1;" transform=" translate(-247.685, -222.722)" d="M 255.565 215.222 h -15.76 c -4.142 0 -7.5 3.358 -7.5 7.5 s 3.358 7.5 7.5 7.5 h 15.76 c 4.142 0 7.5 -3.358 7.5 -7.5 S 259.708 215.222 255.565 215.222 z" stroke-linecap="round"/>
</g>
		<g transform="matrix(1 0 0 1 -90.726 -7.47)" id="Capa_1">
<path style="stroke: #161534; stroke-width: 1.5; stroke-dasharray: none; stroke-linecap: butt; stroke-dashoffset: 0; stroke-linejoin: miter; stroke-miterlimit: 4; is-custom-font: none; font-file-url: none; fill: rgb(0,0,0); fill-rule: nonzero; opacity: 1;" transform=" translate(-139.466, -222.722)" d="M 154.846 222.722 c 0 -4.142 -3.358 -7.5 -7.5 -7.5 h -15.76 c -4.142 0 -7.5 3.358 -7.5 7.5 s 3.358 7.5 7.5 7.5 h 15.76 C 151.488 230.222 154.846 226.864 154.846 222.722 z" stroke-linecap="round"/>
</g>
		<g transform="matrix(1 0 0 1 -72.9915 56.5994)" id="Capa_1">
<path style="stroke: #161534; stroke-width: 1.5; stroke-dasharray: none; stroke-linecap: butt; stroke-dashoffset: 0; stroke-linejoin: miter; stroke-miterlimit: 4; is-custom-font: none; font-file-url: none; fill: rgb(0,0,0); fill-rule: nonzero; opacity: 1;" transform=" translate(-157.2005, -286.7914)" d="M 164.136 283.941 c -1.314 -3.113 -4.658 -5.069 -8.025 -4.546 c -3.049 0.474 -5.522 2.768 -6.213 5.776 c -1.496 6.51 6.051 11.564 11.54 7.829 C 164.343 291.024 165.476 287.186 164.136 283.941 C 163.946 283.491 164.326 284.401 164.136 283.941 z" stroke-linecap="round"/>
</g>
		<g transform="matrix(1 0 0 1 -34.5508 -65.461)" id="Capa_1">
<path style="stroke: #161534; stroke-width: 1.5; stroke-dasharray: none; stroke-linecap: butt; stroke-dashoffset: 0; stroke-linejoin: miter; stroke-miterlimit: 4; is-custom-font: none; font-file-url: none; fill: rgb(0,0,0); fill-rule: nonzero; opacity: 1;" transform=" translate(-195.6413, -164.731)" d="M 286.014 143.391 c -6.531 -10.637 -18.348 -17.245 -30.841 -17.245 h -121.5 c -24.087 0 -45.371 16.217 -51.761 39.443 l -0.943 3.438 c -2.468 8.956 -6.268 24.34 -6.429 24.991 c -0.553 2.238 -0.045 4.606 1.376 6.422 c 1.422 1.815 3.599 2.876 5.905 2.876 h 227.64 c 2.717 0 5.222 -1.469 6.547 -3.841 c 1.326 -2.372 1.265 -5.275 -0.159 -7.589 L 286.014 143.391 z M 199.352 141.145 v 47.169 h -69.054 v -47.018 c 1.115 -0.098 2.24 -0.151 3.375 -0.151 H 199.352 z M 95.432 173.002 l 0.944 -3.441 c 2.86 -10.395 9.865 -18.839 18.922 -23.747 v 42.499 H 91.432 C 92.697 183.321 94.242 177.323 95.432 173.002 z M 214.352 188.314 v -47.169 h 40.821 c 7.316 0 14.235 3.868 18.062 10.1 l 22.807 37.069 H 214.352 z" stroke-linecap="round"/>
</g>
</g>
</g>
</g>
</g>
</svg>